ffmpeg started on 2026-01-13 at 11:25:40
Report written to "D:\Convert\FFMetrics\reports\psnr_report-6.txt"
Log level: 32
Command line:
ffmpeg -hide_banner -nostdin -r 24000/1001 -i "F:\\Convert\\files\\[DC] Make Heroine ga Oosugiru - 07_Telegram_HEVC(77).mkv" -r 24000/1001 -i "F:\\Convert\\files\\[DC] Make Heroine ga Oosugiru - 07_Telegram.mp4" -lavfi "[0:v]settb=AVTB,setpts=PTS-STARTPTS,format=pix_fmts=yuv420p10le,fps=24000/1001,scale=1920:1080:flags=lanczos:param0=3:out_range=limited:out_color_matrix=bt709:out_chroma_loc=left,setsar=1/1,setdar=(1920/1080)*(1/1),colorspace=format=yuv420p10:range=tv:primaries=bt709:trc=bt709:space=bt709:fast=0[main];[1:v]settb=AVTB,setpts=PTS-STARTPTS,format=pix_fmts=yuv420p,fps=24000/1001,scale=1920:1080:flags=lanczos:param0=3:out_range=limited:out_color_matrix=bt709:out_chroma_loc=left,setsar=1.000,setdar=1.778,colorspace=format=yuv420p:range=tv:primaries=bt709:trc=bt709:space=bt709:fast=0[ref];[main][ref]psnr=eof_action=endall:stats_file='D\\:/Convert/FFMetrics/logs/psnr_logfile-6.txt'" -f null -
Input #0, matroska,webm, from 'F:\Convert\files\[DC] Make Heroine ga Oosugiru - 07_Telegram_HEVC(77).mkv':
  Metadata:
    COMPATIBLE_BRANDS: isomiso2avc1mp41
    MAJOR_BRAND     : isom
    MINOR_VERSION   : 512
    ENCODER         : Lavf61.7.100
  Duration: 00:24:06.79, start: -0.021000, bitrate: 923 kb/s
  Stream #0:0: Video: hevc (Main 10), yuv420p10le(tv, bt709, progressive), 1920x1080 [SAR 1:1 DAR 16:9], 23.98 fps, 23.98 tbr, 1k tbn (default)
      Metadata:
        HANDLER_NAME    : VideoHandler
        VENDOR_ID       : [0][0][0][0]
        ENCODER         : Lavc61.19.100 libx265
        BPS             : 726464
        DURATION        : 00:24:06.569708333
        NUMBER_OF_FRAMES: 34683
        NUMBER_OF_BYTES : 131360206
        _STATISTICS_WRITING_APP: mkvpropedit v94.0 ('Initiate') 64-bit
        _STATISTICS_WRITING_DATE_UTC: 2026-01-11 15:20:37
        _STATISTICS_TAGS: BPS DURATION NUMBER_OF_FRAMES NUMBER_OF_BYTES
  Stream #0:1: Audio: aac (LC), 48000 Hz, stereo, fltp (default)
      Metadata:
        HANDLER_NAME    : SoundHandler
        VENDOR_ID       : [0][0][0][0]
        ENCODER         : Lavc61.19.100 aac
        BPS             : 193194
        DURATION        : 00:24:06.784000000
        NUMBER_OF_FRAMES: 67819
        NUMBER_OF_BYTES : 34938755
        _STATISTICS_WRITING_APP: mkvpropedit v94.0 ('Initiate') 64-bit
        _STATISTICS_WRITING_DATE_UTC: 2026-01-11 15:20:37
        _STATISTICS_TAGS: BPS DURATION NUMBER_OF_FRAMES NUMBER_OF_BYTES
Input #1, mov,mp4,m4a,3gp,3g2,mj2, from 'F:\Convert\files\[DC] Make Heroine ga Oosugiru - 07_Telegram.mp4':
  Metadata:
    major_brand     : isom
    minor_version   : 512
    compatible_brands: isomiso2avc1mp41
    encoder         : Lavf60.16.100
  Duration: 00:24:06.74, start: 0.000000, bitrate: 3764 kb/s
  Stream #1:0[0x1](und): Video: h264 (High) (avc1 / 0x31637661), yuv420p(tv, bt709, progressive), 1920x1080 [SAR 1:1 DAR 16:9], 3616 kb/s, 23.98 fps, 23.98 tbr, 24k tbn (default)
      Metadata:
        handler_name    : VideoHandler
        vendor_id       : [0][0][0][0]
        encoder         : Lavc60.31.102 h264_qsv
  Stream #1:1[0x2](und): Audio: aac (HE-AACv2) (mp4a / 0x6134706D), 48000 Hz, stereo, fltp, 144 kb/s (default)
      Metadata:
        handler_name    : SoundHandler
        vendor_id       : [0][0][0][0]
Stream mapping:
  Stream #0:0 (hevc) -> settb:default
  Stream #1:0 (h264) -> settb:default
  psnr:default -> Stream #0:0 (wrapped_avframe)
  Stream #0:1 -> #0:1 (aac (native) -> pcm_s16le (native))
Output #0, null, to 'pipe:':
  Metadata:
    COMPATIBLE_BRANDS: isomiso2avc1mp41
    MAJOR_BRAND     : isom
    MINOR_VERSION   : 512
    encoder         : Lavf61.7.100
  Stream #0:0: Video: wrapped_avframe, yuv420p10le(tv, bt709, progressive), 1920x1080 [SAR 1:1 DAR 16:9], q=2-31, 200 kb/s, 23.98 fps, 23.98 tbn
      Metadata:
        encoder         : Lavc61.19.100 wrapped_avframe
  Stream #0:1: Audio: pcm_s16le, 48000 Hz, stereo, s16, 1536 kb/s (default)
      Metadata:
        HANDLER_NAME    : SoundHandler
        VENDOR_ID       : [0][0][0][0]
        _STATISTICS_TAGS: BPS DURATION NUMBER_OF_FRAMES NUMBER_OF_BYTES
        BPS             : 193194
        DURATION        : 00:24:06.784000000
        NUMBER_OF_FRAMES: 67819
        NUMBER_OF_BYTES : 34938755
        _STATISTICS_WRITING_APP: mkvpropedit v94.0 ('Initiate') 64-bit
        _STATISTICS_WRITING_DATE_UTC: 2026-01-11 15:20:37
        encoder         : Lavc61.19.100 pcm_s16le
frame=  135 fps=0.0 q=-0.0 size=N/A time=00:00:05.63 bitrate=N/A speed=11.1x    frame=  322 fps=311 q=-0.0 size=N/A time=00:00:13.43 bitrate=N/A speed=  13x    frame=  523 fps=339 q=-0.0 size=N/A time=00:00:21.81 bitrate=N/A speed=14.1x    frame=  709 fps=345 q=-0.0 size=N/A time=00:00:29.57 bitrate=N/A speed=14.4x    frame=  891 fps=345 q=-0.0 size=N/A time=00:00:37.16 bitrate=N/A speed=14.4x    frame= 1031 fps=333 q=-0.0 size=N/A time=00:00:43.00 bitrate=N/A speed=13.9x    frame= 1190 fps=330 q=-0.0 size=N/A time=00:00:49.63 bitrate=N/A speed=13.8x    frame= 1354 fps=328 q=-0.0 size=N/A time=00:00:56.47 bitrate=N/A speed=13.7x    frame= 1508 fps=325 q=-0.0 size=N/A time=00:01:02.89 bitrate=N/A speed=13.6x    frame= 1652 fps=321 q=-0.0 size=N/A time=00:01:08.90 bitrate=N/A speed=13.4x    frame= 1823 fps=321 q=-0.0 size=N/A time=00:01:16.03 bitrate=N/A speed=13.4x    frame= 1980 fps=320 q=-0.0 size=N/A time=00:01:22.58 bitrate=N/A speed=13.3x    frame= 2085 fps=311 q=-0.0 size=N/A time=00:01:26.96 bitrate=N/A speed=  13x    frame= 2227 fps=309 q=-0.0 size=N/A time=00:01:32.88 bitrate=N/A speed=12.9x    frame= 2376 fps=308 q=-0.0 size=N/A time=00:01:39.09 bitrate=N/A speed=12.8x    frame= 2515 fps=305 q=-0.0 size=N/A time=00:01:44.89 bitrate=N/A speed=12.7x    frame= 2670 fps=305 q=-0.0 size=N/A time=00:01:51.36 bitrate=N/A speed=12.7x    frame= 2841 fps=306 q=-0.0 size=N/A time=00:01:58.49 bitrate=N/A speed=12.8x    frame= 3016 fps=308 q=-0.0 size=N/A time=00:02:05.83 bitrate=N/A speed=12.9x    frame= 3210 fps=311 q=-0.0 size=N/A time=00:02:13.88 bitrate=N/A speed=  13x    frame= 3394 fps=314 q=-0.0 size=N/A time=00:02:21.55 bitrate=N/A speed=13.1x    frame= 3595 fps=317 q=-0.0 size=N/A time=00:02:29.94 bitrate=N/A speed=13.2x    frame= 3782 fps=319 q=-0.0 size=N/A time=00:02:37.74 bitrate=N/A speed=13.3x    frame= 3967 fps=321 q=-0.0 size=N/A time=00:02:45.45 bitrate=N/A speed=13.4x    frame= 4161 fps=323 q=-0.0 size=N/A time=00:02:53.54 bitrate=N/A speed=13.5x    frame= 4356 fps=325 q=-0.0 size=N/A time=00:03:01.68 bitrate=N/A speed=13.5x    frame= 4478 fps=321 q=-0.0 size=N/A time=00:03:06.76 bitrate=N/A speed=13.4x    frame= 4666 fps=323 q=-0.0 size=N/A time=00:03:14.61 bitrate=N/A speed=13.5x    frame= 4846 fps=324 q=-0.0 size=N/A time=00:03:22.11 bitrate=N/A speed=13.5x    frame= 5042 fps=326 q=-0.0 size=N/A time=00:03:30.29 bitrate=N/A speed=13.6x    frame= 5219 fps=326 q=-0.0 size=N/A time=00:03:37.67 bitrate=N/A speed=13.6x    frame= 5415 fps=328 q=-0.0 size=N/A time=00:03:45.85 bitrate=N/A speed=13.7x    frame= 5594 fps=329 q=-0.0 size=N/A time=00:03:53.31 bitrate=N/A speed=13.7x    frame= 5789 fps=330 q=-0.0 size=N/A time=00:04:01.44 bitrate=N/A speed=13.8x    frame= 5974 fps=331 q=-0.0 size=N/A time=00:04:09.16 bitrate=N/A speed=13.8x    frame= 6160 fps=332 q=-0.0 size=N/A time=00:04:16.92 bitrate=N/A speed=13.8x    frame= 6353 fps=333 q=-0.0 size=N/A time=00:04:24.97 bitrate=N/A speed=13.9x    frame= 6542 fps=334 q=-0.0 size=N/A time=00:04:32.85 bitrate=N/A speed=13.9x    frame= 6737 fps=335 q=-0.0 size=N/A time=00:04:40.98 bitrate=N/A speed=  14x    frame= 6912 fps=335 q=-0.0 size=N/A time=00:04:48.28 bitrate=N/A speed=  14x    frame= 7083 fps=335 q=-0.0 size=N/A time=00:04:55.42 bitrate=N/A speed=  14x    frame= 7270 fps=335 q=-0.0 size=N/A time=00:05:03.21 bitrate=N/A speed=  14x    frame= 7456 fps=336 q=-0.0 size=N/A time=00:05:10.97 bitrate=N/A speed=  14x    frame= 7630 fps=336 q=-0.0 size=N/A time=00:05:18.23 bitrate=N/A speed=  14x    frame= 7809 fps=336 q=-0.0 size=N/A time=00:05:25.70 bitrate=N/A speed=  14x    frame= 7987 fps=336 q=-0.0 size=N/A time=00:05:33.12 bitrate=N/A speed=  14x    frame= 8170 fps=337 q=-0.0 size=N/A time=00:05:40.75 bitrate=N/A speed=  14x    frame= 8346 fps=337 q=-0.0 size=N/A time=00:05:48.09 bitrate=N/A speed=  14x    frame= 8533 fps=337 q=-0.0 size=N/A time=00:05:55.89 bitrate=N/A speed=14.1x    frame= 8721 fps=338 q=-0.0 size=N/A time=00:06:03.73 bitrate=N/A speed=14.1x    frame= 8907 fps=338 q=-0.0 size=N/A time=00:06:11.49 bitrate=N/A speed=14.1x    frame= 9099 fps=339 q=-0.0 size=N/A time=00:06:19.50 bitrate=N/A speed=14.1x    frame= 9294 fps=340 q=-0.0 size=N/A time=00:06:27.63 bitrate=N/A speed=14.2x    frame= 9419 fps=338 q=-0.0 size=N/A time=00:06:32.85 bitrate=N/A speed=14.1x    frame= 9594 fps=338 q=-0.0 size=N/A time=00:06:40.14 bitrate=N/A speed=14.1x    frame= 9788 fps=339 q=-0.0 size=N/A time=00:06:48.24 bitrate=N/A speed=14.1x    frame= 9977 fps=339 q=-0.0 size=N/A time=00:06:56.12 bitrate=N/A speed=14.1x    frame=10164 fps=340 q=-0.0 size=N/A time=00:07:03.92 bitrate=N/A speed=14.2x    frame=10348 fps=340 q=-0.0 size=N/A time=00:07:11.59 bitrate=N/A speed=14.2x    frame=10525 fps=340 q=-0.0 size=N/A time=00:07:18.98 bitrate=N/A speed=14.2x    frame=10716 fps=340 q=-0.0 size=N/A time=00:07:26.94 bitrate=N/A speed=14.2x    frame=10903 fps=341 q=-0.0 size=N/A time=00:07:34.74 bitrate=N/A speed=14.2x    frame=11085 fps=341 q=-0.0 size=N/A time=00:07:42.33 bitrate=N/A speed=14.2x    frame=11265 fps=341 q=-0.0 size=N/A time=00:07:49.84 bitrate=N/A speed=14.2x    frame=11451 fps=341 q=-0.0 size=N/A time=00:07:57.60 bitrate=N/A speed=14.2x    frame=11638 fps=342 q=-0.0 size=N/A time=00:08:05.40 bitrate=N/A speed=14.3x    frame=11827 fps=342 q=-0.0 size=N/A time=00:08:13.28 bitrate=N/A speed=14.3x    frame=11993 fps=342 q=-0.0 size=N/A time=00:08:20.20 bitrate=N/A speed=14.3x    frame=12179 fps=342 q=-0.0 size=N/A time=00:08:27.96 bitrate=N/A speed=14.3x    frame=12364 fps=342 q=-0.0 size=N/A time=00:08:35.68 bitrate=N/A speed=14.3x    frame=12554 fps=343 q=-0.0 size=N/A time=00:08:43.60 bitrate=N/A speed=14.3x    frame=12741 fps=343 q=-0.0 size=N/A time=00:08:51.40 bitrate=N/A speed=14.3x    frame=12923 fps=343 q=-0.0 size=N/A time=00:08:58.99 bitrate=N/A speed=14.3x    frame=13114 fps=343 q=-0.0 size=N/A time=00:09:06.96 bitrate=N/A speed=14.3x    frame=13297 fps=344 q=-0.0 size=N/A time=00:09:14.59 bitrate=N/A speed=14.3x    frame=13478 fps=344 q=-0.0 size=N/A time=00:09:22.14 bitrate=N/A speed=14.3x    frame=13666 fps=344 q=-0.0 size=N/A time=00:09:29.98 bitrate=N/A speed=14.3x    frame=13846 fps=344 q=-0.0 size=N/A time=00:09:37.49 bitrate=N/A speed=14.3x    frame=14030 fps=344 q=-0.0 size=N/A time=00:09:45.16 bitrate=N/A speed=14.4x    frame=14207 fps=344 q=-0.0 size=N/A time=00:09:52.55 bitrate=N/A speed=14.4x    frame=14351 fps=343 q=-0.0 size=N/A time=00:09:58.55 bitrate=N/A speed=14.3x    frame=14514 fps=343 q=-0.0 size=N/A time=00:10:05.35 bitrate=N/A speed=14.3x    frame=14696 fps=343 q=-0.0 size=N/A time=00:10:12.94 bitrate=N/A speed=14.3x    frame=14880 fps=343 q=-0.0 size=N/A time=00:10:20.62 bitrate=N/A speed=14.3x    frame=15064 fps=344 q=-0.0 size=N/A time=00:10:28.29 bitrate=N/A speed=14.3x    frame=15224 fps=343 q=-0.0 size=N/A time=00:10:34.96 bitrate=N/A speed=14.3x    frame=15401 fps=343 q=-0.0 size=N/A time=00:10:42.35 bitrate=N/A speed=14.3x    frame=15590 fps=343 q=-0.0 size=N/A time=00:10:50.23 bitrate=N/A speed=14.3x    frame=15777 fps=344 q=-0.0 size=N/A time=00:10:58.03 bitrate=N/A speed=14.3x    frame=15974 fps=344 q=-0.0 size=N/A time=00:11:06.24 bitrate=N/A speed=14.3x    frame=16158 fps=344 q=-0.0 size=N/A time=00:11:13.92 bitrate=N/A speed=14.4x    frame=16348 fps=344 q=-0.0 size=N/A time=00:11:21.84 bitrate=N/A speed=14.4x    frame=16526 fps=344 q=-0.0 size=N/A time=00:11:29.27 bitrate=N/A speed=14.4x    frame=16718 fps=345 q=-0.0 size=N/A time=00:11:37.27 bitrate=N/A speed=14.4x    frame=16878 fps=344 q=-0.0 size=N/A time=00:11:43.95 bitrate=N/A speed=14.4x    frame=17071 fps=345 q=-0.0 size=N/A time=00:11:52.00 bitrate=N/A speed=14.4x    frame=17262 fps=345 q=-0.0 size=N/A time=00:11:59.96 bitrate=N/A speed=14.4x    frame=17451 fps=345 q=-0.0 size=N/A time=00:12:07.85 bitrate=N/A speed=14.4x    frame=17622 fps=345 q=-0.0 size=N/A time=00:12:14.98 bitrate=N/A speed=14.4x    frame=17816 fps=345 q=-0.0 size=N/A time=00:12:23.07 bitrate=N/A speed=14.4x    frame=18005 fps=346 q=-0.0 size=N/A time=00:12:30.95 bitrate=N/A speed=14.4x    frame=18181 fps=346 q=-0.0 size=N/A time=00:12:38.29 bitrate=N/A speed=14.4x    frame=18352 fps=345 q=-0.0 size=N/A time=00:12:45.43 bitrate=N/A speed=14.4x    frame=18528 fps=345 q=-0.0 size=N/A time=00:12:52.77 bitrate=N/A speed=14.4x    frame=18722 fps=346 q=-0.0 size=N/A time=00:13:00.86 bitrate=N/A speed=14.4x    frame=18901 fps=346 q=-0.0 size=N/A time=00:13:08.32 bitrate=N/A speed=14.4x    frame=19086 fps=346 q=-0.0 size=N/A time=00:13:16.04 bitrate=N/A speed=14.4x    frame=19246 fps=345 q=-0.0 size=N/A time=00:13:22.71 bitrate=N/A speed=14.4x    frame=19413 fps=345 q=-0.0 size=N/A time=00:13:29.68 bitrate=N/A speed=14.4x    frame=19606 fps=345 q=-0.0 size=N/A time=00:13:37.73 bitrate=N/A speed=14.4x    frame=19794 fps=346 q=-0.0 size=N/A time=00:13:45.57 bitrate=N/A speed=14.4x    frame=19981 fps=346 q=-0.0 size=N/A time=00:13:53.37 bitrate=N/A speed=14.4x    frame=20167 fps=346 q=-0.0 size=N/A time=00:14:01.13 bitrate=N/A speed=14.4x    frame=20341 fps=346 q=-0.0 size=N/A time=00:14:08.38 bitrate=N/A speed=14.4x    frame=20519 fps=346 q=-0.0 size=N/A time=00:14:15.81 bitrate=N/A speed=14.4x    frame=20636 fps=345 q=-0.0 size=N/A time=00:14:20.69 bitrate=N/A speed=14.4x    frame=20796 fps=345 q=-0.0 size=N/A time=00:14:27.36 bitrate=N/A speed=14.4x    frame=20990 fps=345 q=-0.0 size=N/A time=00:14:35.45 bitrate=N/A speed=14.4x    frame=21169 fps=345 q=-0.0 size=N/A time=00:14:42.92 bitrate=N/A speed=14.4x    frame=21349 fps=345 q=-0.0 size=N/A time=00:14:50.43 bitrate=N/A speed=14.4x    frame=21538 fps=345 q=-0.0 size=N/A time=00:14:58.31 bitrate=N/A speed=14.4x    frame=21723 fps=345 q=-0.0 size=N/A time=00:15:06.03 bitrate=N/A speed=14.4x    frame=21915 fps=345 q=-0.0 size=N/A time=00:15:14.03 bitrate=N/A speed=14.4x    frame=22103 fps=346 q=-0.0 size=N/A time=00:15:21.87 bitrate=N/A speed=14.4x    frame=22299 fps=346 q=-0.0 size=N/A time=00:15:30.05 bitrate=N/A speed=14.4x    frame=22489 fps=346 q=-0.0 size=N/A time=00:15:37.97 bitrate=N/A speed=14.4x    frame=22671 fps=346 q=-0.0 size=N/A time=00:15:45.56 bitrate=N/A speed=14.4x    frame=22855 fps=346 q=-0.0 size=N/A time=00:15:53.24 bitrate=N/A speed=14.4x    frame=23042 fps=346 q=-0.0 size=N/A time=00:16:01.04 bitrate=N/A speed=14.4x    frame=23180 fps=346 q=-0.0 size=N/A time=00:16:06.79 bitrate=N/A speed=14.4x    frame=23370 fps=346 q=-0.0 size=N/A time=00:16:14.72 bitrate=N/A speed=14.4x    frame=23562 fps=346 q=-0.0 size=N/A time=00:16:22.73 bitrate=N/A speed=14.4x    frame=23749 fps=346 q=-0.0 size=N/A time=00:16:30.53 bitrate=N/A speed=14.4x    frame=23936 fps=346 q=-0.0 size=N/A time=00:16:38.33 bitrate=N/A speed=14.4x    frame=24125 fps=346 q=-0.0 size=N/A time=00:16:46.21 bitrate=N/A speed=14.4x    frame=24299 fps=346 q=-0.0 size=N/A time=00:16:53.47 bitrate=N/A speed=14.4x    frame=24482 fps=346 q=-0.0 size=N/A time=00:17:01.10 bitrate=N/A speed=14.5x    frame=24672 fps=347 q=-0.0 size=N/A time=00:17:09.02 bitrate=N/A speed=14.5x    frame=24856 fps=347 q=-0.0 size=N/A time=00:17:16.70 bitrate=N/A speed=14.5x    frame=25042 fps=347 q=-0.0 size=N/A time=00:17:24.46 bitrate=N/A speed=14.5x    frame=25232 fps=347 q=-0.0 size=N/A time=00:17:32.38 bitrate=N/A speed=14.5x    frame=25418 fps=347 q=-0.0 size=N/A time=00:17:40.14 bitrate=N/A speed=14.5x    frame=25571 fps=347 q=-0.0 size=N/A time=00:17:46.52 bitrate=N/A speed=14.5x    frame=25747 fps=347 q=-0.0 size=N/A time=00:17:53.86 bitrate=N/A speed=14.5x    frame=25935 fps=347 q=-0.0 size=N/A time=00:18:01.70 bitrate=N/A speed=14.5x    frame=26117 fps=347 q=-0.0 size=N/A time=00:18:09.29 bitrate=N/A speed=14.5x    frame=26313 fps=347 q=-0.0 size=N/A time=00:18:17.47 bitrate=N/A speed=14.5x    frame=26502 fps=347 q=-0.0 size=N/A time=00:18:25.35 bitrate=N/A speed=14.5x    frame=26695 fps=347 q=-0.0 size=N/A time=00:18:33.40 bitrate=N/A speed=14.5x    frame=26876 fps=347 q=-0.0 size=N/A time=00:18:40.95 bitrate=N/A speed=14.5x    frame=27046 fps=347 q=-0.0 size=N/A time=00:18:48.04 bitrate=N/A speed=14.5x    frame=27226 fps=347 q=-0.0 size=N/A time=00:18:55.55 bitrate=N/A speed=14.5x    frame=27410 fps=347 q=-0.0 size=N/A time=00:19:03.22 bitrate=N/A speed=14.5x    frame=27590 fps=347 q=-0.0 size=N/A time=00:19:10.73 bitrate=N/A speed=14.5x    frame=27770 fps=347 q=-0.0 size=N/A time=00:19:18.24 bitrate=N/A speed=14.5x    frame=27957 fps=347 q=-0.0 size=N/A time=00:19:26.03 bitrate=N/A speed=14.5x    frame=28091 fps=347 q=-0.0 size=N/A time=00:19:31.62 bitrate=N/A speed=14.5x    frame=28277 fps=347 q=-0.0 size=N/A time=00:19:39.38 bitrate=N/A speed=14.5x    frame=28465 fps=347 q=-0.0 size=N/A time=00:19:47.22 bitrate=N/A speed=14.5x    frame=28657 fps=347 q=-0.0 size=N/A time=00:19:55.23 bitrate=N/A speed=14.5x    frame=28824 fps=347 q=-0.0 size=N/A time=00:20:02.20 bitrate=N/A speed=14.5x    frame=28988 fps=347 q=-0.0 size=N/A time=00:20:09.04 bitrate=N/A speed=14.5x    frame=29154 fps=347 q=-0.0 size=N/A time=00:20:15.96 bitrate=N/A speed=14.5x    frame=29326 fps=347 q=-0.0 size=N/A time=00:20:23.13 bitrate=N/A speed=14.5x    frame=29502 fps=347 q=-0.0 size=N/A time=00:20:30.47 bitrate=N/A speed=14.5x    frame=29668 fps=346 q=-0.0 size=N/A time=00:20:37.40 bitrate=N/A speed=14.5x    frame=29829 fps=346 q=-0.0 size=N/A time=00:20:44.11 bitrate=N/A speed=14.4x    frame=29992 fps=346 q=-0.0 size=N/A time=00:20:50.91 bitrate=N/A speed=14.4x    frame=30169 fps=346 q=-0.0 size=N/A time=00:20:58.29 bitrate=N/A speed=14.4x    frame=30318 fps=346 q=-0.0 size=N/A time=00:21:04.51 bitrate=N/A speed=14.4x    frame=30488 fps=346 q=-0.0 size=N/A time=00:21:11.60 bitrate=N/A speed=14.4x    frame=30675 fps=346 q=-0.0 size=N/A time=00:21:19.40 bitrate=N/A speed=14.4x    frame=30863 fps=346 q=-0.0 size=N/A time=00:21:27.24 bitrate=N/A speed=14.4x    frame=31046 fps=346 q=-0.0 size=N/A time=00:21:34.87 bitrate=N/A speed=14.4x    frame=31237 fps=346 q=-0.0 size=N/A time=00:21:42.84 bitrate=N/A speed=14.4x    frame=31418 fps=346 q=-0.0 size=N/A time=00:21:50.39 bitrate=N/A speed=14.4x    frame=31606 fps=346 q=-0.0 size=N/A time=00:21:58.23 bitrate=N/A speed=14.4x    frame=31788 fps=346 q=-0.0 size=N/A time=00:22:05.82 bitrate=N/A speed=14.4x    frame=31963 fps=346 q=-0.0 size=N/A time=00:22:13.12 bitrate=N/A speed=14.4x    frame=32147 fps=346 q=-0.0 size=N/A time=00:22:20.79 bitrate=N/A speed=14.4x    frame=32340 fps=346 q=-0.0 size=N/A time=00:22:28.84 bitrate=N/A speed=14.4x    frame=32530 fps=346 q=-0.0 size=N/A time=00:22:36.77 bitrate=N/A speed=14.5x    frame=32688 fps=346 q=-0.0 size=N/A time=00:22:43.36 bitrate=N/A speed=14.4x    frame=32804 fps=346 q=-0.0 size=N/A time=00:22:48.20 bitrate=N/A speed=14.4x    frame=32972 fps=346 q=-0.0 size=N/A time=00:22:55.20 bitrate=N/A speed=14.4x    frame=33134 fps=345 q=-0.0 size=N/A time=00:23:01.96 bitrate=N/A speed=14.4x    frame=33309 fps=345 q=-0.0 size=N/A time=00:23:09.26 bitrate=N/A speed=14.4x    frame=33482 fps=345 q=-0.0 size=N/A time=00:23:16.47 bitrate=N/A speed=14.4x    frame=33635 fps=345 q=-0.0 size=N/A time=00:23:22.85 bitrate=N/A speed=14.4x    frame=33769 fps=345 q=-0.0 size=N/A time=00:23:28.44 bitrate=N/A speed=14.4x    frame=33897 fps=344 q=-0.0 size=N/A time=00:23:33.78 bitrate=N/A speed=14.3x    frame=34059 fps=344 q=-0.0 size=N/A time=00:23:40.54 bitrate=N/A speed=14.3x    frame=34214 fps=344 q=-0.0 size=N/A time=00:23:47.00 bitrate=N/A speed=14.3x    frame=34363 fps=343 q=-0.0 size=N/A time=00:23:53.22 bitrate=N/A speed=14.3x    frame=34499 fps=343 q=-0.0 size=N/A time=00:23:58.89 bitrate=N/A speed=14.3x    [Parsed_psnr_16 @ 00000238c74dd440] PSNR y:48.755284 u:50.348600 v:50.392740 average:49.229954 min:37.729647 max:inf
[out#0/null @ 00000238bf928a00] video:14903KiB audio:271276KiB subtitle:0KiB other streams:0KiB global headers:0KiB muxing overhead: unknown
frame=34683 fps=343 q=-0.0 Lsize=N/A time=00:24:06.57 bitrate=N/A speed=14.3x    
